<svg id="Ebene_1" data-name="Ebene 1" xmlns="http://www.w3.org/2000/svg" viewBox="0 0 193.04 193.04"><defs><style>.cls-1{fill:#e30613}.cls-2{fill:#1d1d1b}</style></defs><path class="cls-1" d="M77.22 193.04H0l69.61-69.62h77.22l-69.61 69.62zM193.04 77.21h-77.21L193.04 0v77.21z"></path><path class="cls-2" d="M16.87 110.17h28.37v5.9H25.12v6.42h19.1v5.64h-19.1v7.12h20.29v5.9H16.87ZM57.51 110.17h8.25V135h16.16v6.16H57.51ZM109.92 129.13h-9.52l4.76-12.28Zm4.68 12h8.89l-13.35-31h-10l-13.35 31h8.89l2.47-6.38h14ZM140.13 127.87h11.31c2.89 0 4.39 1.3 4.39 3.73 0 2-1 3.65-3.53 3.65h-12.17Zm-8.25 13.28h21.65c9.19 0 11.06-5.25 11.06-9.37 0-3.34-1.87-6.9-5.41-7.51v-.09c2.86-.91 4-3.82 4-6.21 0-5.72-4.13-7.8-8.55-7.8h-22.8Zm8.25-25.34h10.34c3.4 0 4.25 1.39 4.25 3.34 0 2.3-1.19 3.34-3.1 3.34h-11.49ZM180.89 125.65c0-4.81 2.65-10.45 10.12-10.45s10.14 5.64 10.14 10.45-2.64 10.47-10.14 10.47-10.12-5.65-10.12-10.47Zm-8.76 0c0 6.47 2.56 16.36 18.88 16.36s18.89-9.89 18.89-16.36-2.55-16.35-18.9-16.35-18.87 9.89-18.87 16.35Z" transform="translate(-16.87 -25.37)"></path></svg>
