<svg xmlns="http://www.w3.org/2000/svg" xml:space="preserve" style="fill-rule:evenodd;clip-rule:evenodd;stroke-linejoin:round;stroke-miterlimit:2" viewBox="0 0 176 51"><path d="M39.277.654v31.111h8.108V19.781h12.807v-6.273H47.385v-6.36h14.809V.654z" style="fill-rule:nonzero"></path><path d="M67.482.654h8.103v31.11h-8.103z"></path><path d="M80.993.654h14.552c5.359-.086 11.244 1.308 11.244 7.8a7.002 7.002 0 0 1-4.1 6.273 7.407 7.407 0 0 1 5.361 7.365c0 7.407-5.446 9.674-12.113 9.674H80.993V.654Zm8.1 12.244h6.273c1.4 0 3.313-.74 3.313-2.962 0-2.266-1.612-3.007-3.313-3.007h-6.268zm0 12.374h6.491c2.57 0 4.359-.914 4.359-3.484 0-2.747-1.919-3.661-4.359-3.661h-6.486zM113.308.654h15.86c5.489 0 10.894 2.484 10.894 8.759 0 3.355-1.612 6.535-4.881 7.8v.088c3.312.784 4.271 4.489 4.533 7.453.086 1.306.216 5.88 1.306 7.015h-8.018c-.7-1.047-.828-4.1-.914-4.97-.218-3.136-.742-6.36-4.53-6.36h-6.145v11.328h-8.1L113.308.654Zm8.1 13.508h6.8c2.44 0 3.746-1.306 3.746-3.66 0-2.311-1.828-3.355-4.1-3.355h-6.441zM160.55 0c9.806 0 15.338 7.189 15.338 16.21s-5.532 16.21-15.338 16.21-15.336-7.191-15.336-16.21c0-9.019 5.535-16.21 15.336-16.21m0 25.448c5.231 0 7.236-4.619 7.236-9.238s-2.005-9.237-7.236-9.237-7.231 4.619-7.231 9.237 2.005 9.238 7.231 9.238" style="fill-rule:nonzero"></path><path d="M0 31.766h31.11V.653H0zm15.377-1.845C7.941 29.808 1.885 23.66 1.885 16.223c0-6.695 4.907-12.457 11.515-13.525l1.577 2.148-.9 2.412c-4.382.712-7.634 4.535-7.634 8.974 0 4.929 4.007 9.005 8.934 9.091zm.282-27.372c6.716.054 12.445 5.053 13.408 11.7l-2.158 1.408-2.4-.751c-.652-4.381-4.421-7.677-8.85-7.739V2.549M17.6 29.765l-1.574-2.123.922-2.449c4.362-.685 7.623-4.457 7.669-8.872h4.6c-.047 6.697-4.998 12.426-11.617 13.444" style="fill:#e74e00;fill-rule:nonzero"></path><path d="M39.318 39.419h5.3c1.82 0 3.642.829 3.642 2.927a2.66 2.66 0 0 1-1.631 2.609v.03c1.091.278 1.441 1.5 1.515 2.492a5.926 5.926 0 0 0 .437 2.346h-2.676a5.475 5.475 0 0 1-.307-1.662c-.072-1.049-.232-2.126-1.515-2.126h-2.054v3.788h-2.711zm2.711 4.517h2.274a1.113 1.113 0 0 0 1.253-1.225c0-.771-.613-1.121-1.37-1.121h-2.157zM55.687 39.2c3.265 0 5.129 2.4 5.129 5.42s-1.864 5.42-5.129 5.42c-3.265 0-5.129-2.4-5.129-5.42s1.864-5.42 5.129-5.42m0 8.509c1.75 0 2.418-1.53 2.418-3.089s-.668-3.087-2.418-3.087-2.418 1.529-2.418 3.087c0 1.558.67 3.089 2.418 3.089M71.65 41.75h-3.1v8.072h-2.714V41.75h-3.1v-2.33h8.917zM75.444 39.419h2.753l3.89 10.4h-2.828l-.64-1.862h-3.626l-.655 1.866h-2.784zm.174 6.527h2.36l-1.151-3.642h-.03zM83.987 39.419h5.3c1.822 0 3.644.829 3.644 2.927a2.66 2.66 0 0 1-1.632 2.609v.03c1.093.278 1.443 1.5 1.515 2.492a5.947 5.947 0 0 0 .437 2.346h-2.677a5.48 5.48 0 0 1-.306-1.662c-.072-1.049-.234-2.126-1.515-2.126h-2.055v3.788h-2.711zm2.711 4.517h2.272a1.117 1.117 0 0 0 1.253-1.224c0-.771-.615-1.121-1.372-1.121h-2.153zM100.372 45.947v3.876h-2.711v-3.876l-3.788-6.528h3.075l2.07 4.224 2.068-4.224h3.075zM119.862 41.75h-3.1v8.072h-2.714V41.75h-3.1v-2.33h8.917zM123.657 39.419h2.752l3.892 10.4h-2.828l-.641-1.866h-3.627l-.655 1.866h-2.785zm.174 6.527h2.36l-1.151-3.642h-.028zM132.2 39.419h4.867c1.794-.044 3.758.452 3.758 2.608a2.338 2.338 0 0 1-1.369 2.1 2.49 2.49 0 0 1 1.792 2.463c0 2.476-1.82 3.235-4.05 3.235h-5zm2.711 4.094h2.1a1.014 1.014 0 0 0 1.107-.991c0-.757-.539-1.005-1.107-1.005h-2.1zm0 4.138h2.176c.859 0 1.455-.306 1.455-1.165 0-.919-.64-1.223-1.455-1.223h-2.176zM143.833 39.419h2.711v8.072h4.851v2.332h-7.562zM153.849 39.419h8.29v2.172h-5.579v1.82h5.1v2.1h-5.1v1.982h5.726v2.332h-8.437zM167.058 46.326c.058 1.225.8 1.617 1.966 1.617.815 0 1.66-.29 1.66-1.062 0-.933-1.485-1.094-2.987-1.516-1.471-.423-3.043-1.079-3.043-3 0-2.274 2.288-3.163 4.24-3.163 2.052 0 4.166 1.019 4.166 3.352h-2.709c.044-.933-.859-1.254-1.676-1.254-.583 0-1.311.205-1.311.889 0 .817 1.5.947 3.015 1.369 1.515.422 3.017 1.123 3.017 3 0 2.639-2.244 3.484-4.531 3.484-2.374 0-4.517-1.049-4.517-3.716z" style="fill-rule:nonzero"></path></svg>
