<?xml version="1.0" encoding="utf-8"?>
<svg viewBox="0 0 150 25" xmlns="http://www.w3.org/2000/svg">
  <g transform="matrix(1, 0, 0, 1, -204.36245727539062, 1.9118820428848267)">
    <g>
      <path d="M236.3,0h5.2v15.4h9.3l-1.7,4.4h-12.8V0z"/>
      <path d="M259.9,0h5.3l7.4,19.8h-5.4l-1.2-3.6H259l-1.3,3.6h-5.3L259.9,0z M260.2,12.5h4.5l-2.2-6.9h-0.1L260.2,12.5z"/>
      <path d="M276,0h9.4c3.7,0,7.2,1.7,7.2,6.4c0,4.9-2.8,6.8-7.2,6.8h-4.3v6.6H276V0z M281.2,9.2h3.5c1.6,0,2.8-0.7,2.8-2.5    c0-1.9-1.2-2.6-2.8-2.6h-3.5V9.2z"/>
      <path d="M296.1,0h9.4c3.7,0,7.2,1.7,7.2,6.4c0,4.9-2.8,6.8-7.2,6.8h-4.3v6.6h-5.2V0z M301.2,9.2h3.5c1.6,0,2.8-0.7,2.8-2.5    c0-1.9-1.2-2.6-2.8-2.6h-3.5V9.2z"/>
      <path d="M316.1,0h5.2v15.4h9.3v4.4h-14.4V0z"/>
      <path d="M334,0h15.8v4.1h-10.6v3.5h9.7v4h-9.7v3.8H350v4.4H334V0z"/>
    </g>
    <rect x="252.5" width="4.2" height="3.5"/>
    <rect x="268.4" width="4.2" height="3.5"/>
    <g>
      <polygon class="st0" points="211.2,0 211.2,8.2 215.1,8.2 215.1,3.9 227.2,3.9 227.2,8.2 231.1,8.2 231.1,0   " style="fill: rgb(245, 102, 16);"/>
      <polygon class="st1" points="227.2,11.7 227.2,16 215.1,16 215.1,11.7 211.2,11.7 211.2,19.8 231.1,19.8 231.1,11.7   " style="fill: rgb(0, 56, 109);"/>
    </g>
    <g>
      <path class="st2" d="M217.7,9.9v3.4h6.9V9.9c-1.1,0.5-2.2,0.7-3.5,0.7C219.9,10.7,218.8,10.4,217.7,9.9z" style="fill: rgb(177, 178, 179);"/>
      <path class="st3" d="M217.7,6.5v3.5c1.1,0.5,2.2,0.7,3.5,0.7c1.2,0,2.4-0.3,3.5-0.7V6.5H217.7z" style="fill: rgb(210, 211, 212);"/>
    </g>
  </g>
</svg>
