<?xml version="1.0" encoding="UTF-8"?><svg id="Calque_3" xmlns="http://www.w3.org/2000/svg" viewBox="0 0 1078.41 532.13"><defs><style>.cls-1{fill:#222221;}.cls-2{fill:#030402;}</style></defs><line class="cls-1" x1="132.6" y1="421.06" x2="131.84" y2="421.54"/><line class="cls-1" x1="838.21" y1="421.06" x2="837.46" y2="421.54"/><line class="cls-1" x1="132.6" y1="421.06" x2="131.84" y2="421.54"/><path class="cls-2" d="m139.17,268.74l92.88,148.41c.27.43.89.43,1.16,0l91.82-149.17c.31-.5-.26-1.07-.76-.77l-80.55,47.81-11.09,24.97c-.22.5-.94.5-1.16,0l-11.04-24.97-80.51-47.05c-.5-.29-1.06.28-.75.78Z"/><path class="cls-2" d="m118.66,235.24l66.12-131.38c.23-.46.92-.27.9.24l-11.44,127.82c-.03.36.14.7.45.89l56.85,34.74c.31.2.4.18.71-.03l56.01-34.78c.3-.19.47-.53.44-.88l-10-127.74c-.02-.51.67-.69.9-.23l64.77,132.11-112.27,69.64-113.09-69.18c-.42-.26-.57-.79-.35-1.23Z"/><path class="cls-1" d="m434.9,321.12v2.32h-7.76v25.64h-2.8v-25.64h-7.8v-2.32h18.36Z"/><path class="cls-1" d="m454.2,327.88c1.32.69,2.36,1.75,3.12,3.18.76,1.43,1.14,3.17,1.14,5.22v12.8h-2.76v-12.48c0-2.37-.59-4.19-1.78-5.44-1.19-1.25-2.81-1.88-4.86-1.88s-3.79.67-5.04,2c-1.25,1.33-1.88,3.29-1.88,5.88v11.92h-2.8v-29.6h2.8v11.48c.69-1.31,1.71-2.32,3.06-3.04s2.86-1.08,4.54-1.08,3.14.35,4.46,1.04Z"/><path class="cls-1" d="m484.34,339.24h-18.12c.08,1.65.48,3.07,1.2,4.24s1.67,2.06,2.84,2.66c1.17.6,2.45.9,3.84.9,1.81,0,3.34-.44,4.58-1.32,1.24-.88,2.06-2.07,2.46-3.56h2.96c-.53,2.13-1.67,3.87-3.42,5.22-1.75,1.35-3.94,2.02-6.58,2.02-2.05,0-3.89-.46-5.52-1.38-1.63-.92-2.9-2.23-3.82-3.92-.92-1.69-1.38-3.67-1.38-5.94s.45-4.25,1.36-5.96c.91-1.71,2.17-3.01,3.8-3.92,1.63-.91,3.48-1.36,5.56-1.36s3.9.45,5.46,1.36c1.56.91,2.76,2.13,3.6,3.66s1.26,3.23,1.26,5.1c0,.96-.03,1.69-.08,2.2Zm-3.74-6.44c-.68-1.15-1.61-2.01-2.78-2.6-1.17-.59-2.45-.88-3.84-.88-2.08,0-3.85.67-5.32,2-1.47,1.33-2.28,3.21-2.44,5.64h15.36c.03-1.63-.3-3.01-.98-4.16Z"/><path class="cls-1" d="m520.18,339.24h-18.12c.08,1.65.48,3.07,1.2,4.24s1.67,2.06,2.84,2.66c1.17.6,2.45.9,3.84.9,1.81,0,3.34-.44,4.58-1.32,1.24-.88,2.06-2.07,2.46-3.56h2.96c-.53,2.13-1.67,3.87-3.42,5.22-1.75,1.35-3.94,2.02-6.58,2.02-2.05,0-3.89-.46-5.52-1.38-1.63-.92-2.9-2.23-3.82-3.92-.92-1.69-1.38-3.67-1.38-5.94s.45-4.25,1.36-5.96c.91-1.71,2.17-3.01,3.8-3.92,1.63-.91,3.48-1.36,5.56-1.36s3.9.45,5.46,1.36c1.56.91,2.76,2.13,3.6,3.66s1.26,3.23,1.26,5.1c0,.96-.03,1.69-.08,2.2Zm-3.74-6.44c-.68-1.15-1.61-2.01-2.78-2.6-1.17-.59-2.45-.88-3.84-.88-2.08,0-3.85.67-5.32,2-1.47,1.33-2.28,3.21-2.44,5.64h15.36c.03-1.63-.3-3.01-.98-4.16Z"/><path class="cls-1" d="m542.02,329.26c1.65,1.61,2.48,3.95,2.48,7.02v12.8h-2.76v-12.48c0-2.37-.59-4.19-1.78-5.44-1.19-1.25-2.81-1.88-4.86-1.88s-3.79.67-5.04,2c-1.25,1.33-1.88,3.29-1.88,5.88v11.92h-2.8v-21.84h2.8v3.72c.69-1.33,1.69-2.35,3-3.06s2.79-1.06,4.44-1.06c2.61,0,4.75.81,6.4,2.42Z"/><path class="cls-1" d="m565.21,328.36c1.52.96,2.61,2.17,3.28,3.64v-4.76h2.8v22.4c0,2-.43,3.77-1.3,5.32-.87,1.55-2.07,2.74-3.62,3.58-1.55.84-3.31,1.26-5.28,1.26-2.8,0-5.13-.67-6.98-2-1.85-1.33-3.01-3.15-3.46-5.44h2.76c.48,1.52,1.39,2.73,2.74,3.64,1.35.91,2.99,1.36,4.94,1.36,1.41,0,2.68-.3,3.8-.9,1.12-.6,2-1.49,2.64-2.66s.96-2.56.96-4.16v-5.4c-.69,1.49-1.79,2.73-3.3,3.7-1.51.97-3.29,1.46-5.34,1.46s-3.79-.47-5.38-1.4c-1.59-.93-2.83-2.25-3.72-3.96-.89-1.71-1.34-3.68-1.34-5.92s.45-4.21,1.34-5.9c.89-1.69,2.13-3,3.72-3.92,1.59-.92,3.38-1.38,5.38-1.38s3.84.48,5.36,1.44Zm2.2,5.16c-.72-1.33-1.7-2.36-2.94-3.08-1.24-.72-2.61-1.08-4.1-1.08s-2.93.35-4.16,1.04-2.19,1.7-2.9,3.02c-.71,1.32-1.06,2.89-1.06,4.7s.35,3.35,1.06,4.7c.71,1.35,1.67,2.37,2.9,3.08s2.61,1.06,4.16,1.06,2.86-.36,4.1-1.08c1.24-.72,2.22-1.75,2.94-3.08.72-1.33,1.08-2.88,1.08-4.64s-.36-3.31-1.08-4.64Z"/><path class="cls-1" d="m577.66,322.52c-.4-.4-.6-.89-.6-1.48s.2-1.07.6-1.46c.4-.39.88-.58,1.44-.58s1.04.19,1.44.58.6.87.6,1.46-.2,1.08-.6,1.48c-.4.4-.88.6-1.44.6s-1.04-.2-1.44-.6Zm2.84,4.72v21.84h-2.8v-21.84h2.8Z"/><path class="cls-1" d="m603.49,329.26c1.65,1.61,2.48,3.95,2.48,7.02v12.8h-2.76v-12.48c0-2.37-.59-4.19-1.78-5.44-1.19-1.25-2.81-1.88-4.86-1.88s-3.79.67-5.04,2c-1.25,1.33-1.88,3.29-1.88,5.88v11.92h-2.8v-21.84h2.8v3.72c.69-1.33,1.69-2.35,3-3.06s2.79-1.06,4.44-1.06c2.61,0,4.75.81,6.4,2.42Z"/><path class="cls-1" d="m631.85,339.24h-18.12c.08,1.65.48,3.07,1.2,4.24s1.67,2.06,2.84,2.66c1.17.6,2.45.9,3.84.9,1.81,0,3.34-.44,4.58-1.32,1.24-.88,2.06-2.07,2.46-3.56h2.96c-.53,2.13-1.67,3.87-3.42,5.22-1.75,1.35-3.94,2.02-6.58,2.02-2.05,0-3.89-.46-5.52-1.38-1.63-.92-2.9-2.23-3.82-3.92-.92-1.69-1.38-3.67-1.38-5.94s.45-4.25,1.36-5.96c.91-1.71,2.17-3.01,3.8-3.92,1.63-.91,3.48-1.36,5.56-1.36s3.9.45,5.46,1.36c1.56.91,2.76,2.13,3.6,3.66s1.26,3.23,1.26,5.1c0,.96-.03,1.69-.08,2.2Zm-3.74-6.44c-.68-1.15-1.61-2.01-2.78-2.6-1.17-.59-2.45-.88-3.84-.88-2.08,0-3.85.67-5.32,2-1.47,1.33-2.28,3.21-2.44,5.64h15.36c.03-1.63-.3-3.01-.98-4.16Z"/><path class="cls-1" d="m656.73,339.24h-18.12c.08,1.65.48,3.07,1.2,4.24s1.67,2.06,2.84,2.66c1.17.6,2.45.9,3.84.9,1.81,0,3.34-.44,4.58-1.32,1.24-.88,2.06-2.07,2.46-3.56h2.96c-.53,2.13-1.67,3.87-3.42,5.22-1.75,1.35-3.94,2.02-6.58,2.02-2.05,0-3.89-.46-5.52-1.38-1.63-.92-2.9-2.23-3.82-3.92-.92-1.69-1.38-3.67-1.38-5.94s.45-4.25,1.36-5.96c.91-1.71,2.17-3.01,3.8-3.92,1.63-.91,3.48-1.36,5.56-1.36s3.9.45,5.46,1.36c1.56.91,2.76,2.13,3.6,3.66s1.26,3.23,1.26,5.1c0,.96-.03,1.69-.08,2.2Zm-3.74-6.44c-.68-1.15-1.61-2.01-2.78-2.6-1.17-.59-2.45-.88-3.84-.88-2.08,0-3.85.67-5.32,2-1.47,1.33-2.28,3.21-2.44,5.64h15.36c.03-1.63-.3-3.01-.98-4.16Z"/><path class="cls-1" d="m667.55,327.96c1.27-.75,2.82-1.12,4.66-1.12v2.92h-.76c-2.03,0-3.65.55-4.88,1.64s-1.84,2.92-1.84,5.48v12.2h-2.8v-21.84h2.8v3.88c.61-1.36,1.55-2.41,2.82-3.16Z"/><path class="cls-1" d="m676.37,322.52c-.4-.4-.6-.89-.6-1.48s.2-1.07.6-1.46c.4-.39.88-.58,1.44-.58s1.04.19,1.44.58.6.87.6,1.46-.2,1.08-.6,1.48c-.4.4-.88.6-1.44.6s-1.04-.2-1.44-.6Zm2.84,4.72v21.84h-2.8v-21.84h2.8Z"/><path class="cls-1" d="m702.21,329.26c1.65,1.61,2.48,3.95,2.48,7.02v12.8h-2.76v-12.48c0-2.37-.59-4.19-1.78-5.44-1.19-1.25-2.81-1.88-4.86-1.88s-3.79.67-5.04,2c-1.25,1.33-1.88,3.29-1.88,5.88v11.92h-2.8v-21.84h2.8v3.72c.69-1.33,1.69-2.35,3-3.06s2.79-1.06,4.44-1.06c2.61,0,4.75.81,6.4,2.42Z"/><path class="cls-1" d="m725.41,328.36c1.52.96,2.61,2.17,3.28,3.64v-4.76h2.8v22.4c0,2-.43,3.77-1.3,5.32-.87,1.55-2.07,2.74-3.62,3.58-1.55.84-3.31,1.26-5.28,1.26-2.8,0-5.13-.67-6.98-2-1.85-1.33-3.01-3.15-3.46-5.44h2.76c.48,1.52,1.39,2.73,2.74,3.64,1.35.91,2.99,1.36,4.94,1.36,1.41,0,2.68-.3,3.8-.9,1.12-.6,2-1.49,2.64-2.66s.96-2.56.96-4.16v-5.4c-.69,1.49-1.79,2.73-3.3,3.7-1.51.97-3.29,1.46-5.34,1.46s-3.79-.47-5.38-1.4c-1.59-.93-2.83-2.25-3.72-3.96-.89-1.71-1.34-3.68-1.34-5.92s.45-4.21,1.34-5.9c.89-1.69,2.13-3,3.72-3.92,1.59-.92,3.38-1.38,5.38-1.38s3.84.48,5.36,1.44Zm2.2,5.16c-.72-1.33-1.7-2.36-2.94-3.08-1.24-.72-2.61-1.08-4.1-1.08s-2.93.35-4.16,1.04-2.19,1.7-2.9,3.02c-.71,1.32-1.06,2.89-1.06,4.7s.35,3.35,1.06,4.7c.71,1.35,1.67,2.37,2.9,3.08s2.61,1.06,4.16,1.06,2.86-.36,4.1-1.08c1.24-.72,2.22-1.75,2.94-3.08.72-1.33,1.08-2.88,1.08-4.64s-.36-3.31-1.08-4.64Z"/><path class="cls-1" d="m765.05,342.44h-12.72l-2.44,6.64h-2.96l10.2-27.6h3.16l10.16,27.6h-2.96l-2.44-6.64Zm-.84-2.32l-5.52-15.12-5.52,15.12h11.04Z"/><path class="cls-1" d="m777.73,321.12v27.96h-2.8v-27.96h2.8Z"/><path class="cls-2" d="m425.28,280.97c-4.25-1.83-7.74-4.27-10.45-7.31-2.71-3.04-4.55-6.4-5.5-10.07l13.53-5.72c1.25,3.74,3.35,6.69,6.32,8.85,2.97,2.16,6.44,3.25,10.4,3.25s7.11-.77,9.24-2.31c2.13-1.54,3.19-3.85,3.19-6.93,0-3.3-1.19-6.03-3.58-8.2-2.38-2.16-6.43-4.27-12.15-6.33-8.51-3.23-14.67-6.76-18.48-10.62-3.81-3.85-5.72-8.63-5.72-14.35,0-4.03,1.06-7.65,3.19-10.83,2.13-3.19,5.17-5.68,9.13-7.48,3.96-1.8,8.65-2.69,14.08-2.69,6.31,0,11.73,1.12,16.28,3.35,4.55,2.24,8.21,5.63,11,10.17l-11.99,7.48c-1.83-2.57-3.98-4.46-6.43-5.67-2.46-1.21-5.3-1.82-8.53-1.82-3.45,0-6.14.7-8.08,2.09-1.94,1.39-2.92,3.34-2.92,5.83s1.28,4.8,3.85,6.71c2.57,1.91,6.56,3.92,11.99,6.05,8.36,3.23,14.59,6.98,18.7,11.27,4.11,4.29,6.16,9.44,6.16,15.46,0,4.18-1.16,7.98-3.46,11.38-2.31,3.41-5.65,6.12-10.01,8.14-4.36,2.02-9.52,3.02-15.46,3.02-5.28,0-10.05-.92-14.3-2.75Z"/><path class="cls-2" d="m530.88,215.41h-32.67v18.48h22.88v13.31h-22.88v21.01h32.67v14.08h-48.84v-80.63h48.84v13.75Z"/><path class="cls-2" d="m563.22,201.66l20.02,55,5.06,17.71h-3.96l5.17-17.71,20.02-55h19.03v80.63h-15.51l-.11-36.74,1.32-24.42,3.08-1.76-21.89,62.92h-18.15l-21.89-62.81,2.97,1.76,1.32,24.31v36.74h-15.4l-.11-80.63h19.03Z"/><path class="cls-2" d="m661.12,278.22c-6.38-3.67-11.24-8.65-14.58-14.96-3.34-6.31-5-13.42-5-21.34s1.74-14.81,5.22-21.12c3.48-6.31,8.42-11.31,14.79-15.01,6.38-3.7,13.79-5.55,22.22-5.55s15.73,1.85,22.11,5.55c6.38,3.7,11.33,8.71,14.85,15.01,3.52,6.31,5.28,13.35,5.28,21.12s-1.67,15.03-5,21.34c-3.34,6.31-8.21,11.29-14.63,14.96-6.42,3.67-13.95,5.5-22.61,5.5s-16.28-1.83-22.66-5.5Zm9.51-59.84c-4,2.13-7.17,5.23-9.51,9.29-2.35,4.07-3.52,8.86-3.52,14.36s1.14,10.06,3.41,14.13c2.27,4.07,5.39,7.17,9.35,9.29,3.96,2.13,8.43,3.19,13.42,3.19s9.44-1.06,13.37-3.19c3.92-2.13,7.04-5.22,9.35-9.29,2.31-4.07,3.46-8.78,3.46-14.13s-1.19-10.29-3.58-14.36c-2.38-4.07-5.55-7.17-9.51-9.29-3.96-2.13-8.32-3.19-13.09-3.19s-9.15,1.06-13.14,3.19Z"/><path class="cls-2" d="m739.1,282.29v-80.63c10.05-.15,20.17-.15,30.36,0,5.57.07,10.61,1.23,15.12,3.46,4.51,2.24,8.07,5.28,10.67,9.13,2.6,3.85,3.91,8.2,3.91,13.04,0,3.96-.68,7.54-2.04,10.72-1.36,3.19-3.28,5.83-5.78,7.92-2.49,2.09-5.5,3.47-9.02,4.12l21.23,32.23h-17.49l-26.29-43.01c3.52.15,6.86.15,10.01,0,4.03-.07,7.17-1.16,9.4-3.25,2.24-2.09,3.36-5,3.36-8.75,0-2.2-.61-4.22-1.82-6.05-1.21-1.83-2.9-3.28-5.06-4.34-2.16-1.06-4.6-1.63-7.32-1.71-3.59-.07-8.36-.11-14.3-.11v67.21h-14.96Z"/><path class="cls-2" d="m837.33,201.66h18.37l27.61,80.63h-16.28l-4.73-14.41h-31.46l-4.73,14.41h-16.28l27.5-80.63Zm21.01,53.79l-10.45-30.91-2.75-10.01h2.75l-2.75,10.01-10.45,30.91h23.65Z"/><path class="cls-2" d="m912.68,201.66v80.63h-15.4v-80.63h15.4Z"/></svg>