<?xml version="1.0" encoding="utf-8"?>
<svg viewBox="1.87 -9.351 525.979 561.304" xmlns="http://www.w3.org/2000/svg">
  <defs>
    <style>.cls-1{fill:#222221;}.cls-2{fill:#030402;}</style>
  </defs>
  <g transform="matrix(1.6518250703811646, 0, 0, 1.6518250703811646, -118.90157086707201, -158.81720680671333)">
    <line class="cls-1" x1="132.6" y1="421.06" x2="131.84" y2="421.54" style="fill: rgb(0, 0, 0);"/>
    <line class="cls-1" x1="132.6" y1="421.06" x2="131.84" y2="421.54" style="fill: rgb(0, 0, 0);"/>
    <path class="cls-2" d="m139.17,268.74l92.88,148.41c.27.43.89.43,1.16,0l91.82-149.17c.31-.5-.26-1.07-.76-.77l-80.55,47.81-11.09,24.97c-.22.5-.94.5-1.16,0l-11.04-24.97-80.51-47.05c-.5-.29-1.06.28-.75.78Z" style="fill: rgb(0, 0, 0);"/>
    <path class="cls-2" d="m118.66,235.24l66.12-131.38c.23-.46.92-.27.9.24l-11.44,127.82c-.03.36.14.7.45.89l56.85,34.74c.31.2.4.18.71-.03l56.01-34.78c.3-.19.47-.53.44-.88l-10-127.74c-.02-.51.67-.69.9-.23l64.77,132.11-112.27,69.64-113.09-69.18c-.42-.26-.57-.79-.35-1.23Z" style="fill: rgb(0, 0, 0);"/>
  </g>
</svg>